# AST/ASF file generated using VICON BodyLanguage
# -----------------------------------------------
:version 1.10
:name VICON
:units
  mass 1.0
  length 0.45
  angle deg
:documentation
   .ast/.asf automatically generated from VICON data using
   VICON BodyBuilder and BodyLanguage model FoxedUp or BRILLIANT.MOD
:root
   order TX TY TZ RX RY RZ
   axis XYZ
   position 0 0 0  
   orientation 0 0 0 
:bonedata
  begin
     id 1 
     name lhipjoint
     direction 0.710188 -0.616876 0.339259 
     length 2.5669 
     axis 0 0 0  XYZ
  end
  begin
     id 2 
     name lfemur
     direction 0.34202 -0.939693 0  
     length 7.12796  
     axis 0 0 20  XYZ
    dof rx ry rz
    limits (-160.0 20.0)
           (-70.0 70.0)
           (-60.0 70.0)
  end
  begin
     id 3 
     name ltibia
     direction 0.34202 -0.939693 0   
     length 7.58108   
     axis 0 0 20   XYZ
    dof rx
    limits (-10.0 170.0)
  end
  begin
     id 4 
     name lfoot
     direction 0.0669471 -0.183936 0.980656   
     length 2.17365   
     axis -90 7.62852e-016 20   XYZ
    dof rx rz
    limits (-45.0 90.0)
           (-70.0 20.0)
  end
  begin
     id 5 
     name ltoes
     direction 1.53508e-011 -4.21705e-011 1   
     length 1.09427   
     axis -90 7.62852e-016 20   XYZ
    dof rx
    limits (-90.0 20.0)
  end
  begin
     id 6 
     name rhipjoint
     direction -0.700191 -0.625589 0.34405   
     length 2.53115  
     axis 0 0 0  XYZ 
  end
  begin
     id 7 
     name rfemur
     direction -0.34202 -0.939693 0   
     length 7.33006   
     axis 0 0 -20   XYZ
    dof rx ry rz
    limits (-160.0 20.0)
           (-70.0 70.0)
           (-70.0 60.0)
  end
  begin
     id 8 
     name rtibia
     direction -0.34202 -0.939693 0   
     length 7.64926   
     axis 0 0 -20   XYZ
    dof rx
    limits (-10.0 170.0)
 end
 begin
     id 9 
     name rfoot
     direction -0.0688927 -0.189281 0.979503   
     length 2.20493  
     axis -90 -7.62852e-016 -20   XYZ
    dof rx rz
    limits (-45.0 90.0)
           (-20.0 70.0)
  end
  begin
     id 10 
     name rtoes
     direction -1.53567e-011 -4.21933e-011 1   
     length 1.10919   
     axis -90 -7.62852e-016 -20   XYZ
    dof rx
    limits (-90.0 20.0)
  end
  begin
     id 11 
     name lowerback
     direction -0.0167868 0.989873 -0.140959   
     length 2.14596   
     axis 0 0 0   XYZ
    dof rx ry rz
    limits (-20.0 45.0)
           (-30.0 30.0)
           (-30.0 30.0)
  end
  begin
     id 12 
     name upperback
     direction 0.0129109 0.998033 0.0613525   
     length 2.10457   
     axis 0 0 0   XYZ
    dof rx ry rz
    limits (-20.0 45.0)
           (-30.0 30.0)
           (-30.0 30.0)
  end
  begin
     id 13 
     name thorax
     direction 0.0177047 0.991119 0.131797   
     length 2.17652   
     axis 0 0 0   XYZ
    dof rx ry rz
    limits (-20.0 45.0)
           (-30.0 30.0)
           (-30.0 30.0)
  end
  begin
     id 14 
     name lowerneck
     direction -0.0336893 0.997548 0.0613464   
     length 1.8912   
     axis 0 0 0   XYZ
    dof rx ry rz
    limits (-20.0 45.0)
           (-30.0 30.0)
           (-30.0 30.0)
  end
  begin
     id 15 
     name upperneck
     direction 0.0435909 0.997179 -0.0611028   
     length 1.8829   
     axis 0 0 0   XYZ
    dof rx ry rz
    limits (-20.0 45.0)
           (-30.0 30.0)
           (-30.0 30.0)
  end
  begin
     id 16
     name head
     direction 0.0175076 0.999444 -0.0283782  
     length 1.93197  
     axis 0 0 0   XYZ
    dof rx ry rz
    limits (-20.0 45.0)
           (-30.0 30.0)
           (-30.0 30.0)
  end
  begin
     id 17 
     name lclavicle
     direction 0.919164 0.389875 0.0559876  
     length 3.60004  
     axis 0 0 0   XYZ
    dof ry rz
    limits (-20.0 10.0)
           (0.0 20.0)
  end
  begin
     id 18 
     name lhumerus
     direction 1 -4.48958e-011 6.89191e-027   
     length 5.43301   
     axis 180 -30 -90   XYZ
    dof rx ry rz
    limits (-60.0 90.0)
           (-90.0 90.0)
           (-90.0 90.0)
  end
  begin
     id 19
     name lradius
     direction 1 -4.4897e-011 3.24727e-027   
     length 3.15936   
     axis 180 -30 -90   XYZ
    dof rx
    limits (-10.0 170.0)
  end
  begin
     id 20
     name lwrist
     direction 1 -4.4897e-011 9.00228e-027   
     length 1.57968   
     axis -6.29373e-015 90 90   XYZ
    dof ry
    limits (-180.0 0.0)
 end
  begin
     id 21 
     name lhand
     direction 1 -4.48968e-011 1.80042e-026   
     length 0.712827   
     axis -1.14882e-014 90 90   XYZ
    dof rx rz
    limits (-90.0 90.0)
           (-45.0 45.0)
  end
  begin
     id 22 
     name lfingers
     direction 1 -4.49019e-011 3.60267e-026   
     length 0.574699   
     axis -2.29769e-014 90 90   XYZ
    dof rx
    limits (0.0 90.0)
  end
  begin
     id 23
     name lthumb
     direction 0.707107 -6.3498e-011 0.707107   
     length 0.825157   
     axis -90 45 5.37419e-014   XYZ
    dof rx rz
    limits (-45.0 45.0)
           (-45.0 45.0)
  end
  begin
     id 24 
     name rclavicle
     direction -0.890334 0.455305 -0.00132111   
     length 3.51494  
     axis 0 0 0   XYZ 
    dof ry rz
    limits (-10.0 20.0)
           (-20.0 0.0)
  end
  begin
     id 25 
     name rhumerus
     direction -1 -4.48967e-011 5.07175e-028  
     length 5.34194   
     axis 180 30 90   XYZ
    dof rx ry rz
    limits (-90.0 60.0)
           (-90.0 90.0)
           (-90.0 90.0)
  end
  begin
     id 26 
     name rradius
     direction -1 -4.48955e-011 3.30467e-027   
     length 3.19351   
     axis 180 30 90   XYZ
    dof rx
    limits (-10.0 170.0)
  end
  begin
     id 27 
     name rwrist
     direction -1 -4.48968e-011 9.00208e-027   
     length 1.59676   
     axis -6.29373e-015 -90 -90   XYZ
    dof ry
    limits (-180.0 0.0)
  end
  begin
     id 28
     name rhand
     direction -1 -4.49e-011 1.80099e-026   
     length 0.743862   
     axis -1.14882e-014 -90 -90   XYZ
    dof rx rz
    limits (-90.0 90.0)
           (-45.0 45.0)
  end
  begin
     id 29
     name rfingers
     direction -1 -4.49009e-011 3.6023e-026   
     length 0.599721   
     axis -2.29769e-014 -90 -90   XYZ
    dof rx
    limits (0.0 90.0)
  end
  begin
     id 30
     name rthumb
     direction -0.707107 -6.35025e-011 0.707107   
     length 0.861083   
     axis -90 -45 -5.37419e-014   XYZ
    dof rx rz
    limits (-45.0 45.0)
           (-45.0 45.0)
  end
:hierarchy
  begin
    root lhipjoint rhipjoint lowerback
    lhipjoint lfemur
    lfemur ltibia
    ltibia lfoot
    lfoot ltoes
    rhipjoint rfemur
    rfemur rtibia
    rtibia rfoot
    rfoot rtoes
    lowerback upperback
    upperback thorax
    thorax lowerneck lclavicle rclavicle
    lowerneck upperneck
    upperneck head
    lclavicle lhumerus
    lhumerus lradius
    lradius lwrist
    lwrist lhand lthumb
    lhand lfingers
    rclavicle rhumerus
    rhumerus rradius
    rradius rwrist
    rwrist rhand rthumb
    rhand rfingers
  end

#!OML:ASF H:\Martial Arts Walks\Project 1\Capture day 1\Session 1\male.ASF
:FULLY-SPECIFIED
:DEGREES
1
root -1.42505 14.3907 -34.3542 6.34278 -27.1918 -9.34156
lowerback 10.7719 3.73205 1.41287
upperback -0.974177 5.31922 2.31905
thorax -7.16418 2.58931 0.757195
lowerneck -0.598621 -9.6216 -11.3484
upperneck 9.40606 -13.3634 8.71691
head 4.25874 -6.68855 3.82028
rclavicle -6.78601e-014 -2.62396e-014
rhumerus -35.2746 15.048 -84.4455
rradius 38.8524
rwrist 9.17917
rhand -8.10976 -40.579
rfingers 7.12502
rthumb 17.8032 -69.784
lclavicle -6.78601e-014 -2.62396e-014
lhumerus -26.5963 8.38355 78.9374
lradius 26.4995
lwrist -20.4399
lhand -25.7654 24.3259
lfingers 7.12502
lthumb 0.77231 54.3043
rfemur 12.904 -5.23593 10.4039
rtibia 34.9878
rfoot -27.837 -28.513
rtoes -29.4041
lfemur -58.0317 31.5814 -11.4578
ltibia 75.749
lfoot -16.2525 1.53886
ltoes 4.45221
2
root -1.42928 14.3915 -34.3535 6.33833 -27.1929 -9.31982
lowerback 10.7773 3.72779 1.38651
upperback -0.981329 5.31087 2.32292
thorax -7.17763 2.58621 0.776633
lowerneck -0.548786 -9.59333 -11.3785
upperneck 9.37648 -13.3316 8.75825
head 4.243 -6.67382 3.84302
rclavicle -4.06018e-014 7.55382e-015
rhumerus -35.2595 15.0244 -84.4252
rradius 38.8411
rwrist 9.25611
rhand -7.96983 -40.508
rfingers 7.12502
rthumb 17.9379 -69.7008
lclavicle -4.06018e-014 7.55382e-015
lhumerus -26.6204 8.42679 78.9346
lradius 26.5359
lwrist -20.4145
lhand -25.7517 24.4179
lfingers 7.12502
lthumb 0.785589 54.3962
rfemur 12.884 -5.27109 10.3824
rtibia 35.0246
rfoot -27.8127 -28.5437
rtoes -29.4007
lfemur -58.0228 31.5807 -11.4676
ltibia 75.7291
lfoot -16.2305 1.56955
ltoes 4.35701
3
root -1.43468 14.3919 -34.352 6.22864 -27.2058 -9.13927
lowerback 10.8181 3.70621 1.18456
upperback -0.977009 5.25493 2.29436
thorax -7.211 2.56589 0.865446
lowerneck -0.640113 -9.58188 -11.2927
upperneck 9.48901 -13.3009 8.60584
head 4.27326 -6.65898 3.77967
rclavicle 3.50606e-014 -8.74653e-015
rhumerus -35.3094 15.183 -84.5189
rradius 38.8727
rwrist 8.98752
rhand -8.86363 -39.5637
rfingers 7.12502
rthumb 17.0777 -68.8331
lclavicle 3.50606e-014 -8.74653e-015
lhumerus -26.6755 8.27951 78.9712
lradius 26.6868
lwrist -20.135
lhand -25.4823 25.3826
lfingers 7.12502
lthumb 1.04575 55.3597
rfemur 12.9329 -5.27793 10.2024
rtibia 35.0299
rfoot -27.8523 -28.4805
rtoes -29.3601
lfemur -57.9753 31.6449 -11.6465
ltibia 75.7137
lfoot -16.2529 1.54212
ltoes 4.39597
4
root -1.43763 14.3928 -34.3517 6.34945 -27.1905 -9.29945
lowerback 10.7967 3.69845 1.33218
upperback -1.00777 5.26852 2.35278
thorax -7.22439 2.56779 0.842951
lowerneck -0.513975 -9.5586 -11.3955
upperneck 9.39614 -13.283 8.70453
head 4.23582 -6.65341 3.83459
rclavicle 5.46658e-016 -7.55382e-015
rhumerus -35.3073 15.0747 -84.4171
rradius 38.8709
rwrist 9.27438
rhand -8.91692 -39.4517
rfingers 7.12502
rthumb 17.0264 -68.7255
lclavicle 5.46658e-016 -7.55382e-015
lhumerus -26.6978 8.51965 78.9169
lradius 26.5902
lwrist -20.3921
lhand -25.8279 24.3689
lfingers 7.12502
lthumb 0.711997 54.3475
rfemur 12.8831 -5.27396 10.3914
rtibia 35.0347
rfoot -27.9032 -28.4809
rtoes -30.1624
lfemur -58.0295 31.5752 -11.4665
ltibia 75.7284
lfoot -16.1949 1.59486
ltoes 4.38899
5
root -1.44184 14.3932 -34.3511 6.34321 -27.1794 -9.26978
lowerback 10.8032 3.69089 1.27785
upperback -1.0125 5.25242 2.3616
thorax -7.23871 2.56215 0.884442
lowerneck -0.525911 -9.53654 -11.4119
upperneck 9.425 -13.2565 8.73424
head 4.24686 -6.63955 3.84698
rclavicle 4.78077e-014 2.70347e-014
rhumerus -35.2943 15.0454 -84.3864
rradius 38.8688
rwrist 9.41657
rhand -7.88061 -40.5382
rfingers 7.12502
rthumb 18.0237 -69.7231
lclavicle 4.78077e-014 2.70347e-014
lhumerus -26.6803 8.54016 78.9189
lradius 26.5743
lwrist -20.3633
lhand -25.8055 24.5324
lfingers 7.12502
lthumb 0.733627 54.5109
rfemur 12.8903 -5.30478 10.3661
rtibia 35.0462
rfoot -27.9921 -28.3981
rtoes -29.1116
lfemur -58.0335 31.5662 -11.487
ltibia 75.7189
lfoot -16.1884 1.60322
ltoes 4.49435
6
root -1.4457 14.3937 -34.3501 6.35487 -27.1749 -9.26641
lowerback 10.8046 3.69637 1.27374
upperback -1.02364 5.25965 2.36082
thorax -7.25184 2.56572 0.884192
lowerneck -0.520035 -9.55097 -11.4041
upperneck 9.45853 -13.2777 8.72077
head 4.25687 -6.65042 3.83973
rclavicle -4.89507e-015 -1.90833e-014
rhumerus -35.2977 15.0108 -84.381
rradius 38.8091
rwrist 9.30305
rhand -8.29446 -40.3115
rfingers 7.12502
rthumb 17.6255 -69.5326
lclavicle -4.89507e-015 -1.90833e-014
lhumerus -26.6682 8.50996 78.9253
lradius 26.5749
lwrist -20.3223
lhand -25.7963 24.4418
lfingers 7.12502
lthumb 0.742518 54.4203
rfemur 12.8848 -5.30447 10.3857
rtibia 35.0467
rfoot -27.9968 -28.4101
rtoes -29.0776
lfemur -58.0396 31.5594 -11.4765
ltibia 75.72
lfoot -16.1583 1.60281
ltoes 4.45143
